# xmcd
#
# Track frame offsets:
#	150
#	12527
#	23307
#	37480
#	51177
#	63029
#	77882
#	88445
#	102822
#	114162
#	125189
#	136094
#	147740
#	160215
#	173787
#	185676
#	198078
#	210553
#	221061
#	232525
#
# Disc length: 3348 seconds
#
# Revision: 0
# Processed by: cddbd v1.5.2PL0 Copyright (c) Steve Scherf et al.
# Submitted via: dBpowerAMP V4.0
#
DISCID=1a0d1214
DTITLE=Various Artist - 50 Years Of Easy Listening Country [CD2]
DYEAR=1995
DGENRE=Country
TTITLE0=(I Never Promised You A) Rose Garden - Lynn Anderson
TTITLE1=Hello Darlin' - Conway Twitty
TTITLE2=Rinestone Cowboy - Glen Campbell
TTITLE3=(If Loving You Is Wrong) I Don't Want To Be Right - Barbara Mandrell
TTITLE4=The Most Beautiful Girl - Charlie Rich
TTITLE5=I'm Not Lisa - Jessie Colter
TTITLE6=Heaven's Just A Sin Away - The Kendalls
TTITLE7=Luckenbach, Texas (Back To The Basics Of Love) - Waylon Jennings
TTITLE8=Before The Next Teardrop Falls - Freddy Fender
TTITLE9=The Happiest Girl In The Whole U.S.A. - Donna Fargo
TTITLE10=King Of The Road - Roger Miller
TTITLE11=The End Of The World - Skeeter Davis
TTITLE12=Detroit City - Bobby Bare
TTITLE13=Big Bad John - Jimmy Dean
TTITLE14=Make The World Go Away - Eddy Arnold
TTITLE15=Reuben James - Kenny Rogers
TTITLE16=Still - Bill Anderson
TTITLE17=Walk On By - Leroy Van Dyke
TTITLE18=There Goes My Everything - Jack Greene
TTITLE19=Ode To Billie Joe - Bobbie Gentry
EXTD=
EXTT0=
EXTT1=
EXTT2=
EXTT3=
EXTT4=
EXTT5=
EXTT6=
EXTT7=
EXTT8=
EXTT9=
EXTT10=
EXTT11=
EXTT12=
EXTT13=
EXTT14=
EXTT15=
EXTT16=
EXTT17=
EXTT18=
EXTT19=
PLAYORDER=
